<?xml version="1.0" encoding="UTF-8" standalone="no"?>
<!-- Created with Inkscape (http://www.inkscape.org/) -->

<svg
   width="143.07281mm"
   height="140.22887mm"
   viewBox="0 0 143.07281 140.22887"
   version="1.1"
   id="svg5"
   sodipodi:docname="schematic.svg"
   inkscape:version="1.2.2 (b0a8486541, 2022-12-01)"
   xmlns:inkscape="http://www.inkscape.org/namespaces/inkscape"
   xmlns:sodipodi="http://sodipodi.sourceforge.net/DTD/sodipodi-0.dtd"
   xmlns="http://www.w3.org/2000/svg"
   xmlns:svg="http://www.w3.org/2000/svg">
  <sodipodi:namedview
     id="namedview7"
     pagecolor="#ffffff"
     bordercolor="#666666"
     borderopacity="1.0"
     inkscape:showpageshadow="2"
     inkscape:pageopacity="0.0"
     inkscape:pagecheckerboard="0"
     inkscape:deskcolor="#d1d1d1"
     inkscape:document-units="mm"
     showgrid="false"
     inkscape:zoom="1"
     inkscape:cx="396"
     inkscape:cy="209.5"
     inkscape:window-width="1920"
     inkscape:window-height="1058"
     inkscape:window-x="0"
     inkscape:window-y="0"
     inkscape:window-maximized="1"
     inkscape:current-layer="layer1" />
  <defs
     id="defs2" />
  <g
     inkscape:label="Layer 1"
     inkscape:groupmode="layer"
     id="layer1"
     transform="translate(-9.5679893,-4.1664562)">
    <rect
       style="fill:#fbdfc6;stroke:#dbbca0;stroke-width:0.865;stroke-linejoin:round;stroke-opacity:1;paint-order:stroke fill markers;stop-color:#000000"
       id="rect234"
       width="52.570236"
       height="87.055222"
       x="99.638077"
       y="51.8377" />
    <g
       aria-label="RPi 4B"
       id="text952"
       style="font-size:10.5833px;line-height:1.3;letter-spacing:0px;word-spacing:0px;stroke-width:0.264583;stroke-linejoin:round">
      <path
         d="M 110.36395,99.334045 V 91.6371 h 2.60073 q 0.90198,0 1.48076,0.308179 0.57877,0.30442 0.85688,0.838095 0.27812,0.533675 0.27812,1.213922 0,0.680248 -0.27812,1.206406 -0.27811,0.526159 -0.85312,0.826821 -0.57502,0.296903 -1.46949,0.296903 h -2.10463 v -0.841853 h 2.07456 q 0.61636,0 0.99219,-0.180397 0.37958,-0.180397 0.54871,-0.511126 0.17288,-0.334486 0.17288,-0.796754 0,-0.462267 -0.17288,-0.808029 -0.17288,-0.345761 -0.55247,-0.533675 -0.37959,-0.191671 -1.00346,-0.191671 H 111.296 v 6.870124 z m 3.62298,-3.457612 1.89417,3.457612 h -1.08238 l -1.86411,-3.457612 z"
         id="path491" />
      <path
         d="M 117.12884,99.334045 V 91.6371 h 2.60073 q 0.90574,0 1.48076,0.32697 0.57877,0.323212 0.85688,0.875678 0.27811,0.552466 0.27811,1.232714 0,0.680247 -0.27811,1.236472 -0.27435,0.556224 -0.84937,0.886953 -0.57501,0.326969 -1.47324,0.326969 h -1.86411 v -0.82682 h 1.83404 q 0.62012,0 0.99594,-0.214221 0.37583,-0.214222 0.54495,-0.578775 0.17289,-0.368311 0.17289,-0.830578 0,-0.462268 -0.17289,-0.826821 -0.16912,-0.364552 -0.5487,-0.571257 -0.37959,-0.210463 -1.00722,-0.210463 h -1.63861 v 6.870124 z"
         id="path493" />
      <path
         d="m 123.72837,99.334045 v -5.772708 h 0.88695 v 5.772708 z m 0.45099,-6.734827 q -0.25932,0 -0.44723,-0.176639 -0.18416,-0.176638 -0.18416,-0.424684 0,-0.248047 0.18416,-0.424685 0.18791,-0.176639 0.44723,-0.176639 0.25932,0 0.44348,0.176639 0.18791,0.176638 0.18791,0.424685 0,0.248046 -0.18791,0.424684 -0.18416,0.176639 -0.44348,0.176639 z"
         id="path495" />
      <path
         d="m 129.02001,97.75557 v -0.766688 l 3.38244,-5.351782 h 0.55623 v 1.187615 h -0.37583 l -2.55563,4.043903 v 0.06013 h 4.55503 v 0.82682 z m 3.62297,1.578475 V 97.522557 97.165521 91.6371 h 0.88696 v 7.696945 z"
         id="path497" />
      <path
         d="M 136.13067,99.334045 V 91.6371 h 2.69092 q 0.80427,0 1.32667,0.278112 0.5224,0.274355 0.77797,0.74038 0.25556,0.462268 0.25556,1.026009 0,0.496092 -0.17664,0.819304 -0.17288,0.323212 -0.45851,0.511125 -0.28187,0.187914 -0.6126,0.278113 v 0.07516 q 0.35328,0.02255 0.71032,0.248046 0.35703,0.225497 0.59756,0.646423 0.24053,0.420927 0.24053,1.029767 0,0.578775 -0.26308,1.041042 -0.26308,0.462268 -0.83058,0.732864 -0.5675,0.270595 -1.477,0.270595 z m 0.93205,-0.82682 h 1.84907 q 0.91326,0 1.29661,-0.353278 0.3871,-0.357036 0.3871,-0.864403 0,-0.39086 -0.19919,-0.721588 -0.19919,-0.334487 -0.5675,-0.533675 -0.36831,-0.202947 -0.87192,-0.202947 h -1.89417 z m 0,-3.487678 h 1.72881 q 0.42092,0 0.75917,-0.165364 0.342,-0.165364 0.54119,-0.466026 0.20295,-0.300662 0.20295,-0.706556 0,-0.507367 -0.35328,-0.860644 -0.35328,-0.357036 -1.11997,-0.357036 h -1.75887 z"
         id="path499" />
    </g>
    <g
       aria-label="5V
GND
GPIO2
GPIO3"
       id="text1006"
       style="font-size:5.29167px;line-height:1.5;letter-spacing:0px;word-spacing:0px;stroke-width:0.264583;stroke-linejoin:round">
      <path
         d="m 106.33769,58.374428 q -0.33073,0 -0.59569,-0.13154 -0.26496,-0.13154 -0.42469,-0.360796 -0.15973,-0.229256 -0.17476,-0.522402 h 0.451 q 0.0263,0.261201 0.23677,0.432203 0.21234,0.169123 0.50737,0.169123 0.23677,0 0.42093,-0.110869 0.18603,-0.11087 0.29126,-0.304422 0.10711,-0.195431 0.10711,-0.441599 0,-0.251805 -0.11087,-0.449115 -0.10899,-0.199189 -0.30066,-0.313817 -0.19167,-0.114628 -0.43784,-0.116507 -0.17664,-0.0019 -0.36267,0.05449 -0.18604,0.0545 -0.3063,0.140936 l -0.43597,-0.05262 0.23302,-1.894177 h 1.99941 v 0.413411 h -1.60855 l -0.1353,1.135003 h 0.0225 q 0.11839,-0.09396 0.29691,-0.155969 0.17851,-0.06201 0.37207,-0.06201 0.35328,0 0.62951,0.169123 0.27811,0.167243 0.43596,0.458511 0.15973,0.291267 0.15973,0.665217 0,0.368312 -0.16537,0.6577 -0.16348,0.287509 -0.45099,0.454753 -0.28751,0.165365 -0.65394,0.165365 z"
         id="path460" />
      <path
         d="m 108.57762,54.473325 1.14252,3.239644 h 0.0451 l 1.14252,-3.239644 h 0.48858 l -1.41312,3.848487 h -0.48106 l -1.41311,-3.848487 z"
         id="path462" />
      <path
         d="m 107.83349,63.613482 q -0.062,-0.189794 -0.16349,-0.340126 -0.0996,-0.15221 -0.23865,-0.259321 -0.13718,-0.107112 -0.31194,-0.163486 -0.17476,-0.05637 -0.38334,-0.05637 -0.34201,0 -0.622,0.176639 -0.27999,0.17664 -0.44536,0.520523 -0.16536,0.343884 -0.16536,0.843736 0,0.499852 0.16724,0.843736 0.16724,0.343883 0.45287,0.520522 0.28563,0.17664 0.64267,0.17664 0.33073,0 0.58254,-0.140936 0.25368,-0.142815 0.39462,-0.402137 0.14281,-0.261201 0.14281,-0.61448 l 0.14282,0.03007 h -1.15756 v -0.413412 h 1.46574 v 0.413412 q 0,0.475423 -0.20295,0.826823 -0.20107,0.3514 -0.55623,0.544952 -0.35328,0.191672 -0.81179,0.191672 -0.51113,0 -0.89823,-0.24053 -0.38522,-0.24053 -0.60133,-0.684008 -0.21422,-0.443478 -0.21422,-1.052321 0,-0.456632 0.12215,-0.821186 0.12402,-0.366433 0.34952,-0.623876 0.22549,-0.257443 0.53367,-0.39462 0.30818,-0.137178 0.67838,-0.137178 0.30442,0 0.5675,0.09208 0.26496,0.0902 0.47166,0.257443 0.20859,0.165365 0.34764,0.396499 0.13906,0.229256 0.19168,0.509249 z"
         id="path464" />
      <path
         d="m 112.18558,62.410829 v 3.848487 h -0.45099 l -2.09713,-3.021663 h -0.0376 v 3.021663 h -0.46603 v -3.848487 h 0.45099 l 2.10465,3.029181 h 0.0376 v -3.029181 z"
         id="path466" />
      <path
         d="m 114.30525,66.259316 h -1.18762 v -3.848487 h 1.24024 q 0.55998,0 0.95836,0.231135 0.39838,0.229256 0.61072,0.65958 0.21234,0.428444 0.21234,1.026012 0,0.601326 -0.21422,1.035409 -0.21422,0.432203 -0.62387,0.665217 -0.40966,0.231134 -0.99595,0.231134 z m -0.72159,-0.413411 h 0.69152 q 0.47731,0 0.79112,-0.184156 0.31382,-0.184157 0.46791,-0.524282 0.15409,-0.340125 0.15409,-0.809911 0,-0.466027 -0.15221,-0.802394 -0.15221,-0.338246 -0.45475,-0.518644 -0.30255,-0.182277 -0.75354,-0.182277 h -0.74414 z"
         id="path468" />
      <path
         d="m 107.83349,71.550986 q -0.062,-0.189793 -0.16349,-0.340125 -0.0996,-0.15221 -0.23865,-0.259322 -0.13718,-0.107111 -0.31194,-0.163485 -0.17476,-0.05638 -0.38334,-0.05638 -0.34201,0 -0.622,0.17664 -0.27999,0.17664 -0.44536,0.520523 -0.16536,0.343883 -0.16536,0.843736 0,0.499852 0.16724,0.843735 0.16724,0.343884 0.45287,0.520523 0.28563,0.17664 0.64267,0.17664 0.33073,0 0.58254,-0.140936 0.25368,-0.142815 0.39462,-0.402137 0.14281,-0.261201 0.14281,-0.61448 l 0.14282,0.03007 h -1.15756 v -0.413411 h 1.46574 v 0.413411 q 0,0.475424 -0.20295,0.826824 -0.20107,0.3514 -0.55623,0.544952 -0.35328,0.191672 -0.81179,0.191672 -0.51113,0 -0.89823,-0.24053 -0.38522,-0.240531 -0.60133,-0.684009 -0.21422,-0.443478 -0.21422,-1.05232 0,-0.456632 0.12215,-0.821186 0.12402,-0.366433 0.34952,-0.623876 0.22549,-0.257443 0.53367,-0.39462 0.30818,-0.137178 0.67838,-0.137178 0.30442,0 0.5675,0.09208 0.26496,0.0902 0.47166,0.257443 0.20859,0.165365 0.34764,0.396499 0.13906,0.229256 0.19168,0.509248 z"
         id="path470" />
      <path
         d="m 109.13385,74.196821 v -3.848487 h 1.30037 q 0.45287,0 0.74038,0.163486 0.28939,0.161606 0.42845,0.43784 0.13905,0.276234 0.13905,0.616359 0,0.340126 -0.13905,0.618239 -0.13718,0.278113 -0.42469,0.443478 -0.28751,0.163485 -0.73663,0.163485 h -0.93205 V 72.37781 h 0.91702 q 0.31006,0 0.49797,-0.107112 0.18792,-0.107111 0.27248,-0.289388 0.0864,-0.184156 0.0864,-0.415291 0,-0.231134 -0.0864,-0.413411 -0.0846,-0.182277 -0.27435,-0.28563 -0.1898,-0.105232 -0.50362,-0.105232 h -0.8193 v 3.435075 z"
         id="path472" />
      <path
         d="m 112.95979,70.348334 v 3.848487 h -0.46603 v -3.848487 z"
         id="path474" />
      <path
         d="m 117.139,72.272578 q 0,0.608842 -0.21986,1.05232 -0.21986,0.443478 -0.6032,0.684009 -0.38335,0.24053 -0.87569,0.24053 -0.49233,0 -0.87568,-0.24053 -0.38334,-0.240531 -0.6032,-0.684009 -0.21986,-0.443478 -0.21986,-1.05232 0,-0.608843 0.21986,-1.052321 0.21986,-0.443478 0.6032,-0.684009 0.38335,-0.24053 0.87568,-0.24053 0.49234,0 0.87569,0.24053 0.38334,0.240531 0.6032,0.684009 0.21986,0.443478 0.21986,1.052321 z m -0.45099,0 q 0,-0.499853 -0.16725,-0.843736 -0.16536,-0.343883 -0.44911,-0.520523 -0.28187,-0.17664 -0.6314,-0.17664 -0.34952,0 -0.63327,0.17664 -0.28187,0.17664 -0.44911,0.520523 -0.16537,0.343883 -0.16537,0.843736 0,0.499852 0.16537,0.843735 0.16724,0.343884 0.44911,0.520523 0.28375,0.17664 0.63327,0.17664 0.34953,0 0.6314,-0.17664 0.28375,-0.176639 0.44911,-0.520523 0.16725,-0.343883 0.16725,-0.843735 z"
         id="path476" />
      <path
         d="m 117.85308,74.196821 v -0.338246 l 1.2703,-1.390566 q 0.22362,-0.244289 0.36831,-0.424687 0.14469,-0.182277 0.21422,-0.342004 0.0714,-0.161607 0.0714,-0.338246 0,-0.202948 -0.0977,-0.3514 -0.0958,-0.148452 -0.26308,-0.229256 -0.16725,-0.0808 -0.37583,-0.0808 -0.22174,0 -0.38711,0.09208 -0.16348,0.0902 -0.25368,0.253685 -0.0883,0.163485 -0.0883,0.383345 h -0.44348 q 0,-0.338246 0.15597,-0.593809 0.15597,-0.255564 0.42469,-0.398379 0.27059,-0.142815 0.60696,-0.142815 0.33825,0 0.59945,0.142815 0.2612,0.142815 0.40965,0.385225 0.14845,0.242409 0.14845,0.539314 0,0.212343 -0.077,0.415291 -0.0752,0.201068 -0.26308,0.449115 -0.18604,0.246168 -0.51677,0.601326 l -0.8644,0.924539 v 0.03007 h 1.78894 v 0.413411 z"
         id="path478" />
      <path
         d="m 107.83349,79.488491 q -0.062,-0.189793 -0.16349,-0.340125 -0.0996,-0.152211 -0.23865,-0.259322 -0.13718,-0.107111 -0.31194,-0.163485 -0.17476,-0.05638 -0.38334,-0.05638 -0.34201,0 -0.622,0.17664 -0.27999,0.176639 -0.44536,0.520523 -0.16536,0.343883 -0.16536,0.843735 0,0.499853 0.16724,0.843736 0.16724,0.343883 0.45287,0.520523 0.28563,0.17664 0.64267,0.17664 0.33073,0 0.58254,-0.140936 0.25368,-0.142815 0.39462,-0.402137 0.14281,-0.261201 0.14281,-0.61448 l 0.14282,0.03007 h -1.15756 v -0.413412 h 1.46574 v 0.413412 q 0,0.475424 -0.20295,0.826824 -0.20107,0.351399 -0.55623,0.544951 -0.35328,0.191673 -0.81179,0.191673 -0.51113,0 -0.89823,-0.24053 -0.38522,-0.240531 -0.60133,-0.684009 -0.21422,-0.443478 -0.21422,-1.052321 0,-0.456632 0.12215,-0.821186 0.12402,-0.366433 0.34952,-0.623875 0.22549,-0.257443 0.53367,-0.394621 0.30818,-0.137177 0.67838,-0.137177 0.30442,0 0.5675,0.09208 0.26496,0.0902 0.47166,0.257443 0.20859,0.165364 0.34764,0.396499 0.13906,0.229256 0.19168,0.509248 z"
         id="path480" />
      <path
         d="m 109.13385,82.134326 v -3.848487 h 1.30037 q 0.45287,0 0.74038,0.163485 0.28939,0.161607 0.42845,0.437841 0.13905,0.276234 0.13905,0.616359 0,0.340125 -0.13905,0.618239 -0.13718,0.278113 -0.42469,0.443478 -0.28751,0.163485 -0.73663,0.163485 h -0.93205 v -0.413412 h 0.91702 q 0.31006,0 0.49797,-0.107111 0.18792,-0.107111 0.27248,-0.289388 0.0864,-0.184156 0.0864,-0.415291 0,-0.231135 -0.0864,-0.413411 -0.0846,-0.182277 -0.27435,-0.28563 -0.1898,-0.105232 -0.50362,-0.105232 h -0.8193 v 3.435075 z"
         id="path482" />
      <path
         d="m 112.95979,78.285839 v 3.848487 h -0.46603 v -3.848487 z"
         id="path484" />
      <path
         d="m 117.139,80.210082 q 0,0.608843 -0.21986,1.052321 -0.21986,0.443478 -0.6032,0.684009 -0.38335,0.24053 -0.87569,0.24053 -0.49233,0 -0.87568,-0.24053 -0.38334,-0.240531 -0.6032,-0.684009 -0.21986,-0.443478 -0.21986,-1.052321 0,-0.608842 0.21986,-1.05232 0.21986,-0.443478 0.6032,-0.684009 0.38335,-0.24053 0.87568,-0.24053 0.49234,0 0.87569,0.24053 0.38334,0.240531 0.6032,0.684009 0.21986,0.443478 0.21986,1.05232 z m -0.45099,0 q 0,-0.499852 -0.16725,-0.843735 -0.16536,-0.343884 -0.44911,-0.520523 -0.28187,-0.17664 -0.6314,-0.17664 -0.34952,0 -0.63327,0.17664 -0.28187,0.176639 -0.44911,0.520523 -0.16537,0.343883 -0.16537,0.843735 0,0.499853 0.16537,0.843736 0.16724,0.343883 0.44911,0.520523 0.28375,0.17664 0.63327,0.17664 0.34953,0 0.6314,-0.17664 0.28375,-0.17664 0.44911,-0.520523 0.16725,-0.343883 0.16725,-0.843736 z"
         id="path486" />
      <path
         d="m 119.15344,82.186942 q -0.37207,0 -0.66333,-0.127782 -0.28939,-0.127782 -0.46039,-0.355158 -0.16913,-0.229256 -0.18416,-0.531798 h 0.47354 q 0.015,0.186035 0.12779,0.321334 0.11275,0.133419 0.29502,0.206706 0.18228,0.07329 0.40402,0.07329 0.24805,0 0.43972,-0.08644 0.19167,-0.08644 0.30066,-0.240531 0.10899,-0.15409 0.10899,-0.357037 0,-0.212343 -0.10523,-0.37395 -0.10523,-0.163485 -0.30818,-0.255563 -0.20295,-0.09208 -0.49609,-0.09208 h -0.30818 v -0.413412 h 0.30818 q 0.22925,0 0.40213,-0.08268 0.17476,-0.08268 0.27248,-0.233013 0.0996,-0.150332 0.0996,-0.35328 0,-0.19543 -0.0864,-0.340125 -0.0864,-0.144694 -0.24429,-0.225497 -0.15597,-0.0808 -0.36831,-0.0808 -0.19919,0 -0.37583,0.07329 -0.17476,0.07141 -0.28563,0.208585 -0.11087,0.135298 -0.12026,0.326971 h -0.451 q 0.0113,-0.302543 0.18228,-0.529919 0.171,-0.229256 0.44724,-0.357037 0.27811,-0.127782 0.61072,-0.127782 0.35704,0 0.6126,0.144694 0.25556,0.142815 0.39274,0.377708 0.13718,0.234893 0.13718,0.507369 0,0.325092 -0.171,0.554347 -0.16913,0.229256 -0.46039,0.317576 v 0.03007 q 0.36455,0.06013 0.56938,0.310059 0.20482,0.248047 0.20482,0.61448 0,0.313817 -0.171,0.563743 -0.16912,0.248047 -0.46227,0.390862 -0.29315,0.142815 -0.6671,0.142815 z"
         id="path488" />
    </g>
    <rect
       style="fill:#c6fbf8;fill-opacity:1;stroke:#a0dcd9;stroke-width:0.864998;stroke-linejoin:round;stroke-opacity:1;paint-order:stroke fill markers;stop-color:#000000"
       id="rect1024"
       width="40.304016"
       height="73.867645"
       x="4.5989552"
       y="-83.868134"
       transform="rotate(90)" />
    <g
       aria-label="LCD Shield"
       id="text1028"
       style="font-size:10.5833px;line-height:1.3;letter-spacing:0px;word-spacing:0px;stroke-width:0.264583">
      <path
         d="m 20.521175,22.302044 v -7.696945 h 0.932052 v 6.870125 h 3.577877 v 0.82682 z"
         id="path348" />
      <path
         d="m 32.367245,17.010394 h -0.932052 q -0.08268,-0.402135 -0.289387,-0.706555 -0.202947,-0.304421 -0.496092,-0.511126 -0.289387,-0.210463 -0.642665,-0.315695 -0.353278,-0.105231 -0.736622,-0.105231 -0.699039,0 -1.266538,0.353277 -0.563741,0.353278 -0.898227,1.041042 -0.330729,0.687764 -0.330729,1.687465 0,0.999701 0.330729,1.687465 0.334486,0.687764 0.898227,1.041042 0.567499,0.353278 1.266538,0.353278 0.383344,0 0.736622,-0.105232 0.353278,-0.105231 0.642665,-0.311936 0.293145,-0.210464 0.496092,-0.514884 0.206705,-0.308178 0.289387,-0.706555 h 0.932052 q -0.105232,0.590049 -0.383344,1.056075 -0.278112,0.466026 -0.691522,0.792995 -0.41341,0.323212 -0.928294,0.492334 -0.511125,0.169123 -1.093658,0.169123 -0.984667,0 -1.751355,-0.481059 -0.766688,-0.48106 -1.206406,-1.368012 -0.439718,-0.886953 -0.439718,-2.104634 0,-1.21768 0.439718,-2.104633 0.439718,-0.886953 1.206406,-1.368012 0.766688,-0.481059 1.751355,-0.481059 0.582533,0 1.093658,0.169122 0.514884,0.169123 0.928294,0.496093 0.41341,0.323211 0.691522,0.789237 0.278112,0.462268 0.383344,1.056075 z"
         id="path350" />
      <path
         d="m 36.245777,22.302044 h -2.375229 v -7.696945 h 2.48046 q 1.119966,0 1.91672,0.462267 0.796754,0.45851 1.221439,1.319155 0.424685,0.856886 0.424685,2.052017 0,1.202648 -0.428443,2.070809 -0.428443,0.864403 -1.247747,1.330429 -0.819304,0.462268 -1.991885,0.462268 z M 34.8026,21.475224 h 1.383044 q 0.954602,0 1.582234,-0.368311 0.627632,-0.368311 0.93581,-1.048559 0.308178,-0.680247 0.308178,-1.619816 0,-0.932052 -0.30442,-1.604783 -0.30442,-0.676489 -0.909502,-1.037283 -0.605082,-0.364553 -1.507068,-0.364553 H 34.8026 Z"
         id="path352" />
      <path
         d="m 48.663114,16.529335 q -0.06765,-0.571258 -0.548708,-0.886953 -0.481059,-0.315695 -1.180098,-0.315695 -0.511125,0 -0.894469,0.165364 -0.379586,0.165364 -0.593807,0.454752 -0.210464,0.289387 -0.210464,0.657698 0,0.308178 0.146573,0.529916 0.150331,0.21798 0.383344,0.364553 0.233013,0.142814 0.488575,0.236771 0.255563,0.0902 0.469785,0.146573 l 0.781721,0.210463 q 0.300662,0.07892 0.668973,0.21798 0.372069,0.139056 0.710313,0.379586 0.342003,0.236771 0.563741,0.60884 0.221739,0.372069 0.221739,0.913261 0,0.623873 -0.32697,1.127482 -0.323212,0.503608 -0.947085,0.800512 -0.620116,0.296904 -1.507068,0.296904 -0.82682,0 -1.431903,-0.266838 -0.601323,-0.266837 -0.947085,-0.744138 -0.342003,-0.477301 -0.387102,-1.108691 h 0.962118 q 0.03758,0.43596 0.293146,0.721589 0.259321,0.28187 0.653939,0.420927 0.398377,0.135297 0.856887,0.135297 0.533675,0 0.95836,-0.17288 0.424685,-0.176639 0.672731,-0.488576 0.248046,-0.315695 0.248046,-0.736622 0,-0.383343 -0.214222,-0.623873 -0.214221,-0.24053 -0.563741,-0.390861 -0.349519,-0.15033 -0.755413,-0.263079 l -0.947085,-0.270595 q -0.901986,-0.259321 -1.428144,-0.74038 -0.526159,-0.481059 -0.526159,-1.259022 0,-0.646423 0.34952,-1.127482 0.353278,-0.484818 0.947085,-0.751655 0.597566,-0.270596 1.334187,-0.270596 0.744139,0 1.322913,0.266838 0.578774,0.263079 0.917019,0.721588 0.342003,0.45851 0.360794,1.041042 z"
         id="path354" />
      <path
         d="m 51.970404,18.829399 v 3.472645 h -0.886953 v -7.696945 h 0.886953 v 2.826222 h 0.07516 q 0.202947,-0.447235 0.60884,-0.710314 0.409652,-0.266837 1.0899,-0.266837 0.590049,0 1.033525,0.236771 0.443477,0.233013 0.687764,0.71783 0.248046,0.481059 0.248046,1.225197 v 3.668076 h -0.886952 v -3.607943 q 0,-0.687764 -0.357036,-1.063592 -0.353278,-0.379585 -0.98091,-0.379585 -0.43596,0 -0.781721,0.184155 -0.342003,0.184155 -0.541191,0.537433 -0.19543,0.353278 -0.19543,0.856887 z"
         id="path356" />
      <path
         d="m 57.337227,22.302044 v -5.772709 h 0.886953 v 5.772709 z m 0.450993,-6.734827 q -0.259321,0 -0.447234,-0.176639 -0.184156,-0.176639 -0.184156,-0.424685 0,-0.248046 0.184156,-0.424685 0.187913,-0.176639 0.447234,-0.176639 0.259321,0 0.443477,0.176639 0.187913,0.176639 0.187913,0.424685 0,0.248046 -0.187913,0.424685 -0.184156,0.176639 -0.443477,0.176639 z"
         id="path358" />
      <path
         d="m 62.268077,22.422309 q -0.834337,0 -1.439419,-0.368311 -0.601324,-0.372069 -0.928294,-1.037284 -0.323211,-0.668973 -0.323211,-1.555925 0,-0.886953 0.323211,-1.563442 0.32697,-0.680248 0.909502,-1.059834 0.586291,-0.383343 1.368012,-0.383343 0.450993,0 0.890711,0.150331 0.439718,0.15033 0.800513,0.488575 0.360794,0.334487 0.575015,0.886953 0.214222,0.552466 0.214222,1.360495 v 0.375827 h -4.449796 v -0.766688 h 3.54781 q 0,-0.488575 -0.19543,-0.871919 -0.191672,-0.383344 -0.548708,-0.605082 -0.353278,-0.221738 -0.834337,-0.221738 -0.529916,0 -0.917019,0.263079 -0.383344,0.259321 -0.590049,0.676489 -0.206705,0.417169 -0.206705,0.894469 v 0.511126 q 0,0.653939 0.225497,1.10869 0.229254,0.450993 0.635148,0.687765 0.405894,0.233013 0.943327,0.233013 0.349519,0 0.63139,-0.09772 0.285629,-0.101473 0.492334,-0.300661 0.206705,-0.202947 0.319453,-0.503609 l 0.856887,0.240529 q -0.135298,0.43596 -0.454752,0.766688 -0.319453,0.32697 -0.789237,0.511126 -0.469784,0.180397 -1.056075,0.180397 z"
         id="path360" />
      <path
         d="m 66.898264,14.605099 v 7.696945 h -0.886953 v -7.696945 z"
         id="path362" />
      <path
         d="m 70.701627,22.422309 q -0.721588,0 -1.274055,-0.364553 -0.552466,-0.368311 -0.864403,-1.037284 -0.311936,-0.672731 -0.311936,-1.589749 0,-0.909503 0.311936,-1.578476 0.311937,-0.668972 0.868162,-1.033525 0.556224,-0.364552 1.285329,-0.364552 0.563741,0 0.890711,0.187913 0.330728,0.184156 0.503609,0.420927 0.176639,0.233013 0.274354,0.383344 h 0.07516 v -2.841255 h 0.886953 v 7.696945 h -0.856886 v -0.886953 h -0.105232 q -0.09771,0.157848 -0.278112,0.398377 -0.180398,0.236772 -0.514884,0.424685 -0.334486,0.184156 -0.890711,0.184156 z m 0.120265,-0.796754 q 0.533675,0 0.901986,-0.278113 0.368311,-0.28187 0.559983,-0.777962 0.191672,-0.499851 0.191672,-1.153791 0,-0.646423 -0.187914,-1.13124 -0.187914,-0.488576 -0.556225,-0.759171 -0.368311,-0.274354 -0.909502,-0.274354 -0.563741,0 -0.939569,0.289387 -0.372069,0.285629 -0.559982,0.777962 -0.184156,0.488576 -0.184156,1.097416 0,0.616357 0.187914,1.119966 0.191672,0.499851 0.563741,0.796754 0.375827,0.293146 0.932052,0.293146 z"
         id="path364" />
    </g>
    <g
       aria-label="5V
GND
SDA
SCL"
       transform="rotate(-90)"
       id="text1038"
       style="font-size:5.29167px;line-height:1.5;letter-spacing:0px;word-spacing:0px;stroke-width:0.264583">
      <path
         d="m -36.962614,57.607109 q -0.330729,0 -0.595688,-0.13154 -0.26496,-0.13154 -0.424687,-0.360796 -0.159727,-0.229255 -0.17476,-0.522402 h 0.450994 q 0.02631,0.261201 0.236772,0.432203 0.212344,0.169123 0.507369,0.169123 0.236773,0 0.420929,-0.110869 0.186035,-0.11087 0.291267,-0.304422 0.107111,-0.195431 0.107111,-0.441598 0,-0.251806 -0.110869,-0.449116 -0.108991,-0.199189 -0.300663,-0.313817 -0.191673,-0.114628 -0.437841,-0.116507 -0.176639,-0.0019 -0.362675,0.05449 -0.186035,0.0545 -0.3063,0.140936 l -0.435962,-0.05262 0.233014,-1.894177 h 1.99941 v 0.413411 h -1.608548 l -0.135298,1.135004 h 0.02255 q 0.118386,-0.09396 0.296904,-0.155969 0.178519,-0.06201 0.372071,-0.06201 0.353279,0 0.629513,0.169123 0.278113,0.167244 0.435962,0.458511 0.159727,0.291267 0.159727,0.665217 0,0.368312 -0.165365,0.6577 -0.163485,0.287509 -0.450994,0.454753 -0.28751,0.165365 -0.653943,0.165365 z"
         id="path367" />
      <path
         d="m -34.722677,53.706006 1.14252,3.239644 h 0.0451 l 1.142519,-3.239644 h 0.488578 l -1.413117,3.848487 h -0.481061 l -1.413116,-3.848487 z"
         id="path369" />
      <path
         d="m -35.466815,62.846163 q -0.06201,-0.189794 -0.163485,-0.340125 -0.0996,-0.152211 -0.238652,-0.259322 -0.137177,-0.107111 -0.311938,-0.163486 -0.17476,-0.05637 -0.383345,-0.05637 -0.342004,0 -0.621997,0.17664 -0.279992,0.176639 -0.445357,0.520522 -0.165365,0.343884 -0.165365,0.843736 0,0.499852 0.167244,0.843736 0.167244,0.343883 0.452874,0.520523 0.28563,0.176639 0.642667,0.176639 0.33073,0 0.582535,-0.140935 0.253684,-0.142815 0.39462,-0.402137 0.142815,-0.261201 0.142815,-0.61448 l 0.142815,0.03007 h -1.157553 v -0.413412 h 1.465733 v 0.413412 q 0,0.475423 -0.202948,0.826823 -0.201068,0.3514 -0.556226,0.544952 -0.35328,0.191673 -0.811791,0.191673 -0.511127,0 -0.898231,-0.240531 -0.385224,-0.24053 -0.601326,-0.684008 -0.214222,-0.443478 -0.214222,-1.052321 0,-0.456632 0.122144,-0.821186 0.124024,-0.366433 0.349521,-0.623876 0.225497,-0.257442 0.533677,-0.39462 0.30818,-0.137177 0.678371,-0.137177 0.304421,0 0.567501,0.09208 0.26496,0.0902 0.471666,0.257442 0.208585,0.165365 0.347641,0.3965 0.139057,0.229255 0.191673,0.509248 z"
         id="path371" />
      <path
         d="m -31.114721,61.643511 v 3.848487 h -0.450994 l -2.097125,-3.021664 h -0.03758 v 3.021664 h -0.466028 v -3.848487 h 0.450995 l 2.104641,3.02918 h 0.03758 v -3.02918 z"
         id="path373" />
      <path
         d="m -28.995051,65.491998 h -1.187619 v -3.848487 h 1.240235 q 0.559985,0 0.958364,0.231134 0.398378,0.229256 0.610721,0.65958 0.212344,0.428445 0.212344,1.026013 0,0.601326 -0.214223,1.035408 -0.214222,0.432203 -0.623876,0.665217 -0.409653,0.231135 -0.995946,0.231135 z m -0.721591,-0.413412 h 0.691525 q 0.477302,0 0.791119,-0.184156 0.313817,-0.184156 0.467907,-0.524281 0.15409,-0.340125 0.15409,-0.809911 0,-0.466028 -0.152211,-0.802395 -0.15221,-0.338246 -0.454753,-0.518644 -0.302542,-0.182277 -0.753536,-0.182277 h -0.744141 z"
         id="path375" />
      <path
         d="m -35.992975,70.543137 q -0.03383,-0.28563 -0.274355,-0.443478 -0.240531,-0.157848 -0.590052,-0.157848 -0.255563,0 -0.447236,0.08268 -0.189793,0.08268 -0.296905,0.227377 -0.105232,0.144694 -0.105232,0.32885 0,0.15409 0.07329,0.264959 0.07517,0.108991 0.191673,0.182277 0.116507,0.07141 0.244288,0.118386 0.127782,0.0451 0.234893,0.07329 l 0.390862,0.105232 q 0.150332,0.03946 0.334488,0.10899 0.186035,0.06953 0.355158,0.189794 0.171002,0.118386 0.281872,0.304421 0.110869,0.186036 0.110869,0.456632 0,0.311938 -0.163485,0.563744 -0.161607,0.251805 -0.473544,0.400257 -0.310059,0.148453 -0.753537,0.148453 -0.413412,0 -0.715954,-0.13342 -0.300663,-0.133419 -0.473545,-0.37207 -0.171002,-0.238651 -0.193551,-0.554348 h 0.481061 q 0.01879,0.217981 0.146573,0.360796 0.129661,0.140936 0.326971,0.210464 0.199189,0.06765 0.428445,0.06765 0.266838,0 0.479181,-0.08644 0.212344,-0.08832 0.336367,-0.244289 0.124024,-0.157848 0.124024,-0.368312 0,-0.191673 -0.107111,-0.311938 -0.107112,-0.120265 -0.281872,-0.195431 -0.17476,-0.07517 -0.377708,-0.13154 l -0.473544,-0.135299 q -0.450995,-0.129661 -0.714075,-0.370191 -0.26308,-0.24053 -0.26308,-0.629513 0,-0.323213 0.17476,-0.563744 0.17664,-0.242409 0.473544,-0.375828 0.298784,-0.135299 0.667097,-0.135299 0.37207,0 0.661458,0.13342 0.289389,0.13154 0.458512,0.360795 0.171002,0.229256 0.180397,0.520523 z"
         id="path377" />
      <path
         d="m -33.53505,73.429502 h -1.187619 v -3.848487 h 1.240235 q 0.559985,0 0.958364,0.231135 0.398378,0.229256 0.610721,0.65958 0.212344,0.428444 0.212344,1.026012 0,0.601326 -0.214223,1.035409 -0.214222,0.432203 -0.623876,0.665217 -0.409653,0.231134 -0.995946,0.231134 z m -0.721591,-0.413411 h 0.691525 q 0.477302,0 0.791119,-0.184156 0.313817,-0.184156 0.467907,-0.524282 0.15409,-0.340125 0.15409,-0.809911 0,-0.466027 -0.152211,-0.802394 -0.15221,-0.338246 -0.454753,-0.518644 -0.302542,-0.182277 -0.753536,-0.182277 h -0.744141 z"
         id="path379" />
      <path
         d="m -30.941827,73.429502 h -0.488577 l 1.413116,-3.848487 h 0.481061 l 1.413117,3.848487 h -0.488578 l -1.150036,-3.239644 h -0.03007 z m 0.180398,-1.503315 h 1.969343 v 0.413412 h -1.969343 z"
         id="path381" />
      <path
         d="m -35.992975,78.480642 q -0.03383,-0.28563 -0.274355,-0.443478 -0.240531,-0.157848 -0.590052,-0.157848 -0.255563,0 -0.447236,0.08268 -0.189793,0.08268 -0.296905,0.227377 -0.105232,0.144694 -0.105232,0.32885 0,0.15409 0.07329,0.264959 0.07517,0.10899 0.191673,0.182277 0.116507,0.07141 0.244288,0.118386 0.127782,0.0451 0.234893,0.07329 l 0.390862,0.105232 q 0.150332,0.03946 0.334488,0.10899 0.186035,0.06953 0.355158,0.189794 0.171002,0.118386 0.281872,0.304421 0.110869,0.186035 0.110869,0.456632 0,0.311938 -0.163485,0.563743 -0.161607,0.251806 -0.473544,0.400258 -0.310059,0.148452 -0.753537,0.148452 -0.413412,0 -0.715954,-0.133419 -0.300663,-0.133419 -0.473545,-0.37207 -0.171002,-0.238652 -0.193551,-0.554348 h 0.481061 q 0.01879,0.217981 0.146573,0.360796 0.129661,0.140936 0.326971,0.210464 0.199189,0.06765 0.428445,0.06765 0.266838,0 0.479181,-0.08644 0.212344,-0.08832 0.336367,-0.244289 0.124024,-0.157848 0.124024,-0.368312 0,-0.191673 -0.107111,-0.311938 -0.107112,-0.120266 -0.281872,-0.195431 -0.17476,-0.07517 -0.377708,-0.13154 l -0.473544,-0.135299 q -0.450995,-0.129661 -0.714075,-0.370191 -0.26308,-0.240531 -0.26308,-0.629514 0,-0.323212 0.17476,-0.563743 0.17664,-0.242409 0.473544,-0.375829 0.298784,-0.135298 0.667097,-0.135298 0.37207,0 0.661458,0.133419 0.289389,0.13154 0.458512,0.360796 0.171002,0.229256 0.180397,0.520523 z"
         id="path383" />
      <path
         d="m -31.62584,78.721172 h -0.466027 q -0.04134,-0.201068 -0.144694,-0.353279 -0.101474,-0.15221 -0.248047,-0.255563 -0.144695,-0.105232 -0.321334,-0.157848 -0.17664,-0.05262 -0.368312,-0.05262 -0.349521,0 -0.633272,0.17664 -0.281872,0.17664 -0.449115,0.520523 -0.165365,0.343883 -0.165365,0.843736 0,0.499852 0.165365,0.843735 0.167243,0.343884 0.449115,0.520523 0.283751,0.17664 0.633272,0.17664 0.191672,0 0.368312,-0.05262 0.176639,-0.05262 0.321334,-0.155969 0.146573,-0.105232 0.248047,-0.257443 0.103352,-0.15409 0.144694,-0.353279 h 0.466027 q -0.05262,0.295026 -0.191672,0.52804 -0.139057,0.233013 -0.345763,0.396499 -0.206706,0.161606 -0.464148,0.246168 -0.255564,0.08456 -0.546831,0.08456 -0.492336,0 -0.875682,-0.24053 -0.383345,-0.240531 -0.603205,-0.684009 -0.21986,-0.443478 -0.21986,-1.05232 0,-0.608843 0.21986,-1.052321 0.21986,-0.443478 0.603205,-0.684008 0.383346,-0.240531 0.875682,-0.240531 0.291267,0 0.546831,0.08456 0.257442,0.08456 0.464148,0.248047 0.206706,0.161606 0.345763,0.39462 0.139056,0.231135 0.191672,0.528039 z"
         id="path385" />
      <path
         d="M -30.874186,81.367007 V 77.51852 h 0.466028 v 3.435076 h 1.788945 v 0.413411 z"
         id="path387" />
    </g>
    <rect
       style="fill:#c6fbc7;fill-opacity:1;stroke:#a0dca1;stroke-width:0.864998;stroke-linejoin:round;stroke-opacity:1;paint-order:stroke fill markers;stop-color:#000000"
       id="rect1060"
       width="40.304016"
       height="73.867645"
       x="51.605675"
       y="-83.868141"
       transform="rotate(90)" />
    <g
       aria-label="DS3231"
       id="text1064"
       style="font-size:10.5833px;line-height:1.3;letter-spacing:0px;word-spacing:0px;stroke-width:0.264583">
      <path
         d="m 22.896404,69.308769 h -2.375229 v -7.696945 h 2.480461 q 1.119965,0 1.916719,0.462268 0.796754,0.458509 1.221439,1.319154 0.424685,0.856886 0.424685,2.052018 0,1.202647 -0.428443,2.070809 -0.428443,0.864403 -1.247747,1.330429 -0.819304,0.462267 -1.991885,0.462267 z m -1.443177,-0.82682 h 1.383045 q 0.954601,0 1.582233,-0.368311 0.627632,-0.368311 0.93581,-1.048558 0.308179,-0.680248 0.308179,-1.619816 0,-0.932052 -0.304421,-1.604783 -0.30442,-0.67649 -0.909502,-1.037284 -0.605082,-0.364553 -1.507068,-0.364553 h -1.488276 z"
         id="path390" />
      <path
         d="m 32.337188,63.53606 q -0.06765,-0.571257 -0.548708,-0.886952 -0.481059,-0.315695 -1.180098,-0.315695 -0.511125,0 -0.894469,0.165364 -0.379586,0.165364 -0.593807,0.454751 -0.210464,0.289387 -0.210464,0.657698 0,0.308178 0.146573,0.529916 0.150331,0.21798 0.383344,0.364553 0.233013,0.142814 0.488576,0.236771 0.255562,0.0902 0.469784,0.146573 l 0.781721,0.210463 q 0.300662,0.07892 0.668973,0.21798 0.372069,0.139056 0.710313,0.379586 0.342003,0.236771 0.563742,0.60884 0.221738,0.372069 0.221738,0.913261 0,0.623873 -0.32697,1.127482 -0.323212,0.503609 -0.947085,0.800512 -0.620115,0.296904 -1.507068,0.296904 -0.82682,0 -1.431902,-0.266837 -0.601324,-0.266838 -0.947085,-0.744139 -0.342003,-0.4773 -0.387103,-1.10869 h 0.962118 q 0.03758,0.435959 0.293146,0.721588 0.259321,0.281871 0.653939,0.420927 0.398378,0.135298 0.856887,0.135298 0.533675,0 0.95836,-0.172881 0.424685,-0.176639 0.672731,-0.488576 0.248046,-0.315695 0.248046,-0.736621 0,-0.383344 -0.214222,-0.623874 -0.214221,-0.240529 -0.563741,-0.39086 -0.349519,-0.150331 -0.755413,-0.263079 l -0.947085,-0.270596 q -0.901986,-0.259321 -1.428144,-0.74038 -0.526158,-0.481059 -0.526158,-1.259022 0,-0.646423 0.349519,-1.127482 0.353278,-0.484817 0.947085,-0.751655 0.597566,-0.270596 1.334187,-0.270596 0.744139,0 1.322913,0.266838 0.578774,0.263079 0.917019,0.721588 0.342003,0.45851 0.360794,1.041042 z"
         id="path392" />
      <path
         d="m 37.343219,69.414001 q -0.744139,0 -1.326671,-0.255563 -0.578774,-0.255562 -0.920777,-0.710314 -0.338245,-0.458509 -0.368311,-1.063591 h 0.947085 q 0.03007,0.372069 0.255562,0.642665 0.225497,0.266837 0.590049,0.41341 0.364553,0.146573 0.808029,0.146573 0.496093,0 0.879437,-0.172881 0.383343,-0.172881 0.601323,-0.481059 0.21798,-0.308179 0.21798,-0.714072 0,-0.424685 -0.210463,-0.747897 -0.210463,-0.326969 -0.616357,-0.511125 -0.405894,-0.184155 -0.992184,-0.184155 h -0.616357 v -0.826821 h 0.616357 q 0.458509,0 0.80427,-0.165364 0.34952,-0.165364 0.54495,-0.466026 0.199189,-0.300662 0.199189,-0.706555 0,-0.390861 -0.172881,-0.680248 -0.172881,-0.289387 -0.488576,-0.450993 -0.311936,-0.161605 -0.736621,-0.161605 -0.398377,0 -0.751655,0.146572 -0.34952,0.142815 -0.571258,0.417169 -0.221738,0.270595 -0.240529,0.653939 h -0.901986 q 0.02255,-0.605082 0.364552,-1.059833 0.342003,-0.458509 0.89447,-0.714072 0.556224,-0.255563 1.221439,-0.255563 0.714072,0 1.225197,0.289387 0.511125,0.285629 0.785479,0.755414 0.274354,0.469784 0.274354,1.014734 0,0.650181 -0.342003,1.10869 -0.338244,0.45851 -0.920777,0.635149 v 0.06013 q 0.729105,0.120265 1.138757,0.620115 0.409652,0.496092 0.409652,1.228956 0,0.627632 -0.342003,1.127482 -0.338244,0.496092 -0.924535,0.781721 -0.586291,0.285629 -1.334187,0.285629 z"
         id="path394" />
      <path
         d="M 41.477323,69.308769 V 68.63228 l 2.540593,-2.781123 q 0.447235,-0.488575 0.736622,-0.84937 0.289387,-0.364552 0.428443,-0.684006 0.142814,-0.323211 0.142814,-0.676489 0,-0.405894 -0.19543,-0.702797 -0.191672,-0.296904 -0.526158,-0.45851 -0.334487,-0.161605 -0.751655,-0.161605 -0.443476,0 -0.774204,0.184155 -0.32697,0.180397 -0.507367,0.507367 -0.176639,0.32697 -0.176639,0.766688 h -0.886953 q 0,-0.676489 0.311937,-1.187615 0.311936,-0.511125 0.84937,-0.796754 0.541191,-0.285629 1.213922,-0.285629 0.676489,0 1.19889,0.285629 0.5224,0.285629 0.819303,0.770446 0.296904,0.484818 0.296904,1.078625 0,0.424685 -0.154089,0.830579 -0.150331,0.402135 -0.526159,0.898227 -0.372069,0.492334 -1.033525,1.202648 l -1.728806,1.849071 v 0.06013 h 3.577877 v 0.82682 z"
         id="path396" />
      <path
         d="m 50.482153,69.414001 q -0.744139,0 -1.326671,-0.255563 -0.578774,-0.255562 -0.920777,-0.710314 -0.338245,-0.458509 -0.368311,-1.063591 h 0.947085 q 0.03007,0.372069 0.255563,0.642665 0.225496,0.266837 0.590049,0.41341 0.364552,0.146573 0.808029,0.146573 0.496092,0 0.879436,-0.172881 0.383344,-0.172881 0.601324,-0.481059 0.217979,-0.308179 0.217979,-0.714072 0,-0.424685 -0.210463,-0.747897 -0.210463,-0.326969 -0.616357,-0.511125 -0.405893,-0.184155 -0.992184,-0.184155 h -0.616357 v -0.826821 h 0.616357 q 0.458509,0 0.80427,-0.165364 0.34952,-0.165364 0.54495,-0.466026 0.199189,-0.300662 0.199189,-0.706555 0,-0.390861 -0.172881,-0.680248 -0.172881,-0.289387 -0.488576,-0.450993 -0.311936,-0.161605 -0.736621,-0.161605 -0.398377,0 -0.751655,0.146572 -0.34952,0.142815 -0.571258,0.417169 -0.221738,0.270595 -0.240529,0.653939 h -0.901986 q 0.02255,-0.605082 0.364553,-1.059833 0.342002,-0.458509 0.894469,-0.714072 0.556224,-0.255563 1.221439,-0.255563 0.714072,0 1.225197,0.289387 0.511125,0.285629 0.785479,0.755414 0.274354,0.469784 0.274354,1.014734 0,0.650181 -0.342002,1.10869 -0.338245,0.45851 -0.920778,0.635149 v 0.06013 q 0.729106,0.120265 1.138757,0.620115 0.409652,0.496092 0.409652,1.228956 0,0.627632 -0.342003,1.127482 -0.338244,0.496092 -0.924535,0.781721 -0.586291,0.285629 -1.334187,0.285629 z"
         id="path398" />
      <path
         d="m 57.322215,61.611824 v 7.696945 h -0.932052 v -6.719794 h -0.0451 l -1.879137,1.247747 v -0.947085 l 1.924236,-1.277813 z"
         id="path400" />
    </g>
    <g
       aria-label="5V
GND
SDA
SCL"
       transform="rotate(-90)"
       id="text1074"
       style="font-size:5.29167px;line-height:1.5;letter-spacing:0px;word-spacing:0px;stroke-width:0.264583">
      <path
         d="m -83.969335,57.607109 q -0.330729,0 -0.595689,-0.13154 -0.264959,-0.13154 -0.424686,-0.360796 -0.159728,-0.229255 -0.174761,-0.522402 h 0.450995 q 0.02631,0.261201 0.236772,0.432203 0.212343,0.169123 0.507369,0.169123 0.236772,0 0.420928,-0.110869 0.186035,-0.11087 0.291268,-0.304422 0.107111,-0.195431 0.107111,-0.441598 0,-0.251806 -0.11087,-0.449116 -0.10899,-0.199189 -0.300663,-0.313817 -0.191673,-0.114628 -0.43784,-0.116507 -0.17664,-0.0019 -0.362675,0.05449 -0.186036,0.0545 -0.306301,0.140936 l -0.435961,-0.05262 0.233014,-1.894177 h 1.999409 v 0.413411 h -1.608547 l -0.135299,1.135004 h 0.02255 q 0.118386,-0.09396 0.296905,-0.155969 0.178519,-0.06201 0.37207,-0.06201 0.353279,0 0.629514,0.169123 0.278113,0.167244 0.435961,0.458511 0.159727,0.291267 0.159727,0.665217 0,0.368312 -0.165364,0.6577 -0.163486,0.287509 -0.450995,0.454753 -0.287509,0.165365 -0.653942,0.165365 z"
         id="path403" />
      <path
         d="m -81.729398,53.706006 1.14252,3.239644 h 0.0451 l 1.14252,-3.239644 h 0.488577 l -1.413116,3.848487 h -0.481061 l -1.413116,-3.848487 z"
         id="path405" />
      <path
         d="m -82.473536,62.846163 q -0.06201,-0.189794 -0.163486,-0.340125 -0.09959,-0.152211 -0.238651,-0.259322 -0.137178,-0.107111 -0.311938,-0.163486 -0.174761,-0.05637 -0.383346,-0.05637 -0.342004,0 -0.621996,0.17664 -0.279993,0.176639 -0.445357,0.520522 -0.165365,0.343884 -0.165365,0.843736 0,0.499852 0.167244,0.843736 0.167244,0.343883 0.452873,0.520523 0.28563,0.176639 0.642668,0.176639 0.330729,0 0.582534,-0.140935 0.253685,-0.142815 0.394621,-0.402137 0.142815,-0.261201 0.142815,-0.61448 l 0.142815,0.03007 h -1.157553 v -0.413412 h 1.465732 v 0.413412 q 0,0.475423 -0.202947,0.826823 -0.201069,0.3514 -0.556227,0.544952 -0.353279,0.191673 -0.81179,0.191673 -0.511127,0 -0.898231,-0.240531 -0.385225,-0.24053 -0.601326,-0.684008 -0.214223,-0.443478 -0.214223,-1.052321 0,-0.456632 0.122145,-0.821186 0.124023,-0.366433 0.34952,-0.623876 0.225498,-0.257442 0.533677,-0.39462 0.30818,-0.137177 0.678371,-0.137177 0.304422,0 0.567502,0.09208 0.264959,0.0902 0.471665,0.257442 0.208585,0.165365 0.347642,0.3965 0.139056,0.229255 0.191673,0.509248 z"
         id="path407" />
      <path
         d="m -78.121442,61.643511 v 3.848487 h -0.450995 l -2.097125,-3.021664 h -0.03758 v 3.021664 h -0.466028 v -3.848487 h 0.450994 l 2.104642,3.02918 h 0.03758 v -3.02918 z"
         id="path409" />
      <path
         d="m -76.001773,65.491998 h -1.187619 v -3.848487 h 1.240236 q 0.559984,0 0.958363,0.231134 0.398379,0.229256 0.610722,0.65958 0.212343,0.428445 0.212343,1.026013 0,0.601326 -0.214222,1.035408 -0.214223,0.432203 -0.623876,0.665217 -0.409654,0.231135 -0.995947,0.231135 z m -0.721591,-0.413412 h 0.691525 q 0.477303,0 0.79112,-0.184156 0.313817,-0.184156 0.467907,-0.524281 0.15409,-0.340125 0.15409,-0.809911 0,-0.466028 -0.152211,-0.802395 -0.152211,-0.338246 -0.454753,-0.518644 -0.302542,-0.182277 -0.753537,-0.182277 h -0.744141 z"
         id="path411" />
      <path
         d="m -82.999697,70.543137 q -0.03382,-0.28563 -0.274355,-0.443478 -0.24053,-0.157848 -0.590051,-0.157848 -0.255564,0 -0.447236,0.08268 -0.189794,0.08268 -0.296905,0.227377 -0.105232,0.144694 -0.105232,0.32885 0,0.15409 0.07329,0.264959 0.07517,0.108991 0.191673,0.182277 0.116507,0.07141 0.244289,0.118386 0.127782,0.0451 0.234893,0.07329 l 0.390862,0.105232 q 0.150331,0.03946 0.334488,0.10899 0.186035,0.06953 0.355158,0.189794 0.171002,0.118386 0.281871,0.304421 0.11087,0.186036 0.11087,0.456632 0,0.311938 -0.163486,0.563744 -0.161606,0.251805 -0.473544,0.400257 -0.310059,0.148453 -0.753537,0.148453 -0.413411,0 -0.715954,-0.13342 -0.300663,-0.133419 -0.473544,-0.37207 -0.171002,-0.238651 -0.193552,-0.554348 h 0.481061 q 0.01879,0.217981 0.146573,0.360796 0.129661,0.140936 0.326971,0.210464 0.19919,0.06765 0.428445,0.06765 0.266839,0 0.479182,-0.08644 0.212343,-0.08832 0.336367,-0.244289 0.124023,-0.157848 0.124023,-0.368312 0,-0.191673 -0.107111,-0.311938 -0.107111,-0.120265 -0.281872,-0.195431 -0.17476,-0.07517 -0.377708,-0.13154 l -0.473544,-0.135299 q -0.450994,-0.129661 -0.714075,-0.370191 -0.26308,-0.24053 -0.26308,-0.629513 0,-0.323213 0.174761,-0.563744 0.176639,-0.242409 0.473544,-0.375828 0.298784,-0.135299 0.667096,-0.135299 0.372071,0 0.661459,0.13342 0.289388,0.13154 0.458511,0.360795 0.171002,0.229256 0.180398,0.520523 z"
         id="path413" />
      <path
         d="m -80.541772,73.429502 h -1.187619 v -3.848487 h 1.240236 q 0.559984,0 0.958363,0.231135 0.398379,0.229256 0.610722,0.65958 0.212343,0.428444 0.212343,1.026012 0,0.601326 -0.214222,1.035409 -0.214223,0.432203 -0.623876,0.665217 -0.409654,0.231134 -0.995947,0.231134 z m -0.721591,-0.413411 h 0.691525 q 0.477303,0 0.79112,-0.184156 0.313817,-0.184156 0.467907,-0.524282 0.15409,-0.340125 0.15409,-0.809911 0,-0.466027 -0.152211,-0.802394 -0.152211,-0.338246 -0.454753,-0.518644 -0.302542,-0.182277 -0.753537,-0.182277 h -0.744141 z"
         id="path415" />
      <path
         d="m -77.948548,73.429502 h -0.488578 l 1.413117,-3.848487 h 0.481061 l 1.413116,3.848487 h -0.488577 l -1.150037,-3.239644 h -0.03007 z m 0.180398,-1.503315 h 1.969343 v 0.413412 h -1.969343 z"
         id="path417" />
      <path
         d="m -82.999697,78.480642 q -0.03382,-0.28563 -0.274355,-0.443478 -0.24053,-0.157848 -0.590051,-0.157848 -0.255564,0 -0.447236,0.08268 -0.189794,0.08268 -0.296905,0.227377 -0.105232,0.144694 -0.105232,0.32885 0,0.15409 0.07329,0.264959 0.07517,0.10899 0.191673,0.182277 0.116507,0.07141 0.244289,0.118386 0.127782,0.0451 0.234893,0.07329 l 0.390862,0.105232 q 0.150331,0.03946 0.334488,0.10899 0.186035,0.06953 0.355158,0.189794 0.171002,0.118386 0.281871,0.304421 0.11087,0.186035 0.11087,0.456632 0,0.311938 -0.163486,0.563743 -0.161606,0.251806 -0.473544,0.400258 -0.310059,0.148452 -0.753537,0.148452 -0.413411,0 -0.715954,-0.133419 -0.300663,-0.133419 -0.473544,-0.37207 -0.171002,-0.238652 -0.193552,-0.554348 h 0.481061 q 0.01879,0.217981 0.146573,0.360796 0.129661,0.140936 0.326971,0.210464 0.19919,0.06765 0.428445,0.06765 0.266839,0 0.479182,-0.08644 0.212343,-0.08832 0.336367,-0.244289 0.124023,-0.157848 0.124023,-0.368312 0,-0.191673 -0.107111,-0.311938 -0.107111,-0.120266 -0.281872,-0.195431 -0.17476,-0.07517 -0.377708,-0.13154 l -0.473544,-0.135299 q -0.450994,-0.129661 -0.714075,-0.370191 -0.26308,-0.240531 -0.26308,-0.629514 0,-0.323212 0.174761,-0.563743 0.176639,-0.242409 0.473544,-0.375829 0.298784,-0.135298 0.667096,-0.135298 0.372071,0 0.661459,0.133419 0.289388,0.13154 0.458511,0.360796 0.171002,0.229256 0.180398,0.520523 z"
         id="path419" />
      <path
         d="m -78.632561,78.721172 h -0.466028 q -0.04134,-0.201068 -0.144694,-0.353279 -0.101474,-0.15221 -0.248047,-0.255563 -0.144694,-0.105232 -0.321334,-0.157848 -0.176639,-0.05262 -0.368312,-0.05262 -0.349521,0 -0.633271,0.17664 -0.281872,0.17664 -0.449116,0.520523 -0.165365,0.343883 -0.165365,0.843736 0,0.499852 0.165365,0.843735 0.167244,0.343884 0.449116,0.520523 0.28375,0.17664 0.633271,0.17664 0.191673,0 0.368312,-0.05262 0.17664,-0.05262 0.321334,-0.155969 0.146573,-0.105232 0.248047,-0.257443 0.103353,-0.15409 0.144694,-0.353279 h 0.466028 q -0.05262,0.295026 -0.191673,0.52804 -0.139056,0.233013 -0.345762,0.396499 -0.206706,0.161606 -0.464149,0.246168 -0.255564,0.08456 -0.546831,0.08456 -0.492336,0 -0.875681,-0.24053 -0.383345,-0.240531 -0.603205,-0.684009 -0.21986,-0.443478 -0.21986,-1.05232 0,-0.608843 0.21986,-1.052321 0.21986,-0.443478 0.603205,-0.684008 0.383345,-0.240531 0.875681,-0.240531 0.291267,0 0.546831,0.08456 0.257443,0.08456 0.464149,0.248047 0.206706,0.161606 0.345762,0.39462 0.139057,0.231135 0.191673,0.528039 z"
         id="path421" />
      <path
         d="M -77.880907,81.367007 V 77.51852 h 0.466028 v 3.435076 h 1.788945 v 0.413411 z"
         id="path423" />
    </g>
    <rect
       style="fill:#eac6fb;fill-opacity:1;stroke:#c9a0dc;stroke-width:0.864998;stroke-linejoin:round;stroke-opacity:1;paint-order:stroke fill markers;stop-color:#000000"
       id="rect1078"
       width="40.304016"
       height="73.867645"
       x="98.612396"
       y="-83.868134"
       transform="rotate(90)" />
    <g
       aria-label="AHT20"
       id="text1082"
       style="font-size:10.5833px;line-height:1.3;letter-spacing:0px;word-spacing:0px;stroke-width:0.264583">
      <path
         d="m 20.83687,116.31549 h -0.977151 l 2.826222,-7.69694 h 0.962118 l 2.826222,7.69694 H 25.49713 l -2.300064,-6.47926 h -0.06013 z m 0.360794,-3.00662 h 3.938671 v 0.82682 h -3.938671 z"
         id="path426" />
      <path
         d="m 27.676925,116.31549 v -7.69694 h 0.932052 v 3.42754 h 4.104035 v -3.42754 h 0.932052 v 7.69694 h -0.932052 v -3.44258 h -4.104035 v 3.44258 z"
         id="path428" />
      <path
         d="m 35.088243,109.44537 v -0.82682 h 5.772709 v 0.82682 h -2.420328 v 6.87012 h -0.932052 v -6.87012 z"
         id="path430" />
      <path
         d="M 42.168836,116.31549 V 115.639 l 2.540593,-2.78112 q 0.447235,-0.48858 0.736622,-0.84937 0.289387,-0.36455 0.428443,-0.68401 0.142814,-0.32321 0.142814,-0.67649 0,-0.40589 -0.19543,-0.70279 -0.191672,-0.29691 -0.526158,-0.45851 -0.334487,-0.16161 -0.751655,-0.16161 -0.443476,0 -0.774204,0.18416 -0.32697,0.18039 -0.507367,0.50736 -0.176639,0.32697 -0.176639,0.76669 h -0.886953 q 0,-0.67649 0.311937,-1.18761 0.311937,-0.51113 0.84937,-0.79676 0.541191,-0.28563 1.213922,-0.28563 0.67649,0 1.19889,0.28563 0.5224,0.28563 0.819303,0.77045 0.296904,0.48482 0.296904,1.07862 0,0.42469 -0.154089,0.83058 -0.150331,0.40214 -0.526159,0.89823 -0.372069,0.49233 -1.033525,1.20265 l -1.728806,1.84907 v 0.0601 h 3.577877 v 0.82682 z"
         id="path432" />
      <path
         d="m 51.083467,116.42072 q -0.84937,0 -1.446935,-0.46227 -0.597566,-0.46602 -0.913261,-1.34922 -0.315695,-0.88695 -0.315695,-2.14221 0,-1.24775 0.315695,-2.13094 0.319453,-0.88696 0.917019,-1.35298 0.601324,-0.46979 1.443177,-0.46979 0.841854,0 1.439419,0.46979 0.601324,0.46602 0.917019,1.35298 0.319453,0.88319 0.319453,2.13094 0,1.25526 -0.315695,2.14221 -0.315695,0.8832 -0.91326,1.34922 -0.597566,0.46227 -1.446936,0.46227 z m 0,-0.82682 q 0.841854,0 1.307879,-0.81179 0.466026,-0.81178 0.466026,-2.31509 0,-0.9997 -0.214221,-1.7025 -0.210464,-0.7028 -0.608841,-1.07111 -0.394618,-0.36831 -0.950843,-0.36831 -0.834337,0 -1.304121,0.82306 -0.469784,0.81931 -0.469784,2.31886 0,0.9997 0.210463,1.69874 0.210463,0.69904 0.605082,1.06359 0.398377,0.36455 0.95836,0.36455 z"
         id="path434" />
    </g>
    <g
       aria-label="5V
GND
SDA
SCL"
       transform="rotate(-90)"
       id="text1092"
       style="font-size:5.29167px;line-height:1.5;letter-spacing:0px;word-spacing:0px;stroke-width:0.264583">
      <path
         d="m -130.97606,57.607109 q -0.33073,0 -0.59569,-0.13154 -0.26495,-0.13154 -0.42468,-0.360796 -0.15973,-0.229255 -0.17476,-0.522402 h 0.45099 q 0.0263,0.261201 0.23677,0.432203 0.21235,0.169123 0.50737,0.169123 0.23678,0 0.42093,-0.110869 0.18604,-0.11087 0.29127,-0.304422 0.10711,-0.195431 0.10711,-0.441598 0,-0.251806 -0.11087,-0.449116 -0.10899,-0.199189 -0.30066,-0.313817 -0.19168,-0.114628 -0.43784,-0.116507 -0.17664,-0.0019 -0.36268,0.05449 -0.18603,0.0545 -0.3063,0.140936 l -0.43596,-0.05262 0.23301,-1.894177 h 1.99941 v 0.413411 h -1.60854 l -0.1353,1.135004 h 0.0225 q 0.11838,-0.09396 0.2969,-0.155969 0.17852,-0.06201 0.37207,-0.06201 0.35328,0 0.62952,0.169123 0.27811,0.167244 0.43596,0.458511 0.15972,0.291267 0.15972,0.665217 0,0.368312 -0.16536,0.6577 -0.16349,0.287509 -0.45099,0.454753 -0.28751,0.165365 -0.65395,0.165365 z"
         id="path437" />
      <path
         d="m -128.73612,53.706006 1.14252,3.239644 h 0.0451 l 1.14252,-3.239644 h 0.48858 l -1.41312,3.848487 h -0.48106 l -1.41312,-3.848487 z"
         id="path439" />
      <path
         d="m -129.48026,62.846163 q -0.062,-0.189794 -0.16348,-0.340125 -0.0996,-0.152211 -0.23865,-0.259322 -0.13718,-0.107111 -0.31194,-0.163486 -0.17476,-0.05637 -0.38335,-0.05637 -0.342,0 -0.62199,0.17664 -0.28,0.176639 -0.44536,0.520522 -0.16537,0.343884 -0.16537,0.843736 0,0.499852 0.16725,0.843736 0.16724,0.343883 0.45287,0.520523 0.28563,0.176639 0.64267,0.176639 0.33073,0 0.58253,-0.140935 0.25369,-0.142815 0.39462,-0.402137 0.14282,-0.261201 0.14282,-0.61448 l 0.14281,0.03007 h -1.15755 v -0.413412 h 1.46573 v 0.413412 q 0,0.475423 -0.20294,0.826823 -0.20107,0.3514 -0.55623,0.544952 -0.35328,0.191673 -0.81179,0.191673 -0.51113,0 -0.89823,-0.240531 -0.38523,-0.24053 -0.60133,-0.684008 -0.21422,-0.443478 -0.21422,-1.052321 0,-0.456632 0.12214,-0.821186 0.12403,-0.366433 0.34952,-0.623876 0.2255,-0.257442 0.53368,-0.39462 0.30818,-0.137177 0.67837,-0.137177 0.30442,0 0.5675,0.09208 0.26496,0.0902 0.47167,0.257442 0.20858,0.165365 0.34764,0.3965 0.13906,0.229255 0.19167,0.509248 z"
         id="path441" />
      <path
         d="m -125.12816,61.643511 v 3.848487 h -0.451 l -2.09712,-3.021664 h -0.0376 v 3.021664 h -0.46602 v -3.848487 h 0.45099 l 2.10464,3.02918 h 0.0376 v -3.02918 z"
         id="path443" />
      <path
         d="m -123.00849,65.491998 h -1.18762 v -3.848487 h 1.24023 q 0.55999,0 0.95837,0.231134 0.39837,0.229256 0.61072,0.65958 0.21234,0.428445 0.21234,1.026013 0,0.601326 -0.21422,1.035408 -0.21422,0.432203 -0.62388,0.665217 -0.40965,0.231135 -0.99594,0.231135 z m -0.7216,-0.413412 h 0.69153 q 0.4773,0 0.79112,-0.184156 0.31382,-0.184156 0.46791,-0.524281 0.15409,-0.340125 0.15409,-0.809911 0,-0.466028 -0.15221,-0.802395 -0.15222,-0.338246 -0.45476,-0.518644 -0.30254,-0.182277 -0.75353,-0.182277 h -0.74415 z"
         id="path445" />
      <path
         d="m -130.00642,70.543137 q -0.0338,-0.28563 -0.27435,-0.443478 -0.24053,-0.157848 -0.59005,-0.157848 -0.25557,0 -0.44724,0.08268 -0.18979,0.08268 -0.29691,0.227377 -0.10523,0.144694 -0.10523,0.32885 0,0.15409 0.0733,0.264959 0.0752,0.108991 0.19167,0.182277 0.11651,0.07141 0.24429,0.118386 0.12778,0.0451 0.23489,0.07329 l 0.39087,0.105232 q 0.15033,0.03946 0.33448,0.10899 0.18604,0.06953 0.35516,0.189794 0.171,0.118386 0.28187,0.304421 0.11087,0.186036 0.11087,0.456632 0,0.311938 -0.16348,0.563744 -0.16161,0.251805 -0.47355,0.400257 -0.31006,0.148453 -0.75353,0.148453 -0.41342,0 -0.71596,-0.13342 -0.30066,-0.133419 -0.47354,-0.37207 -0.171,-0.238651 -0.19355,-0.554348 h 0.48106 q 0.0188,0.217981 0.14657,0.360796 0.12966,0.140936 0.32697,0.210464 0.19919,0.06765 0.42845,0.06765 0.26683,0 0.47918,-0.08644 0.21234,-0.08832 0.33636,-0.244289 0.12403,-0.157848 0.12403,-0.368312 0,-0.191673 -0.10711,-0.311938 -0.10711,-0.120265 -0.28188,-0.195431 -0.17476,-0.07517 -0.3777,-0.13154 l -0.47355,-0.135299 q -0.45099,-0.129661 -0.71407,-0.370191 -0.26308,-0.24053 -0.26308,-0.629513 0,-0.323213 0.17476,-0.563744 0.17664,-0.242409 0.47354,-0.375828 0.29879,-0.135299 0.6671,-0.135299 0.37207,0 0.66146,0.13342 0.28939,0.13154 0.45851,0.360795 0.171,0.229256 0.1804,0.520523 z"
         id="path447" />
      <path
         d="m -127.54849,73.429502 h -1.18762 v -3.848487 h 1.24023 q 0.55999,0 0.95837,0.231135 0.39838,0.229256 0.61072,0.65958 0.21234,0.428444 0.21234,1.026012 0,0.601326 -0.21422,1.035409 -0.21422,0.432203 -0.62388,0.665217 -0.40965,0.231134 -0.99594,0.231134 z m -0.72159,-0.413411 h 0.69152 q 0.4773,0 0.79112,-0.184156 0.31382,-0.184156 0.46791,-0.524282 0.15409,-0.340125 0.15409,-0.809911 0,-0.466027 -0.15221,-0.802394 -0.15221,-0.338246 -0.45476,-0.518644 -0.30254,-0.182277 -0.75353,-0.182277 h -0.74414 z"
         id="path449" />
      <path
         d="m -124.95527,73.429502 h -0.48858 l 1.41312,-3.848487 h 0.48106 l 1.41312,3.848487 h -0.48858 l -1.15004,-3.239644 h -0.0301 z m 0.1804,-1.503315 h 1.96934 v 0.413412 h -1.96934 z"
         id="path451" />
      <path
         d="m -130.00642,78.480642 q -0.0338,-0.28563 -0.27435,-0.443478 -0.24053,-0.157848 -0.59005,-0.157848 -0.25557,0 -0.44724,0.08268 -0.18979,0.08268 -0.29691,0.227377 -0.10523,0.144694 -0.10523,0.32885 0,0.15409 0.0733,0.264959 0.0752,0.10899 0.19167,0.182277 0.11651,0.07141 0.24429,0.118386 0.12778,0.0451 0.23489,0.07329 l 0.39087,0.105232 q 0.15033,0.03946 0.33448,0.10899 0.18604,0.06953 0.35516,0.189794 0.171,0.118386 0.28187,0.304421 0.11087,0.186035 0.11087,0.456632 0,0.311938 -0.16348,0.563743 -0.16161,0.251806 -0.47355,0.400258 -0.31006,0.148452 -0.75353,0.148452 -0.41342,0 -0.71596,-0.133419 -0.30066,-0.133419 -0.47354,-0.37207 -0.171,-0.238652 -0.19355,-0.554348 h 0.48106 q 0.0188,0.217981 0.14657,0.360796 0.12966,0.140936 0.32697,0.210464 0.19919,0.06765 0.42845,0.06765 0.26683,0 0.47918,-0.08644 0.21234,-0.08832 0.33636,-0.244289 0.12403,-0.157848 0.12403,-0.368312 0,-0.191673 -0.10711,-0.311938 -0.10711,-0.120266 -0.28188,-0.195431 -0.17476,-0.07517 -0.3777,-0.13154 l -0.47355,-0.135299 q -0.45099,-0.129661 -0.71407,-0.370191 -0.26308,-0.240531 -0.26308,-0.629514 0,-0.323212 0.17476,-0.563743 0.17664,-0.242409 0.47354,-0.375829 0.29879,-0.135298 0.6671,-0.135298 0.37207,0 0.66146,0.133419 0.28939,0.13154 0.45851,0.360796 0.171,0.229256 0.1804,0.520523 z"
         id="path453" />
      <path
         d="m -125.63928,78.721172 h -0.46603 q -0.0413,-0.201068 -0.14469,-0.353279 -0.10148,-0.15221 -0.24805,-0.255563 -0.1447,-0.105232 -0.32134,-0.157848 -0.17663,-0.05262 -0.36831,-0.05262 -0.34952,0 -0.63327,0.17664 -0.28187,0.17664 -0.44911,0.520523 -0.16537,0.343883 -0.16537,0.843736 0,0.499852 0.16537,0.843735 0.16724,0.343884 0.44911,0.520523 0.28375,0.17664 0.63327,0.17664 0.19168,0 0.36831,-0.05262 0.17664,-0.05262 0.32134,-0.155969 0.14657,-0.105232 0.24805,-0.257443 0.10335,-0.15409 0.14469,-0.353279 h 0.46603 q -0.0526,0.295026 -0.19168,0.52804 -0.13905,0.233013 -0.34576,0.396499 -0.2067,0.161606 -0.46415,0.246168 -0.25556,0.08456 -0.54683,0.08456 -0.49233,0 -0.87568,-0.24053 -0.38334,-0.240531 -0.6032,-0.684009 -0.21986,-0.443478 -0.21986,-1.05232 0,-0.608843 0.21986,-1.052321 0.21986,-0.443478 0.6032,-0.684008 0.38335,-0.240531 0.87568,-0.240531 0.29127,0 0.54683,0.08456 0.25745,0.08456 0.46415,0.248047 0.20671,0.161606 0.34576,0.39462 0.13906,0.231135 0.19168,0.528039 z"
         id="path455" />
      <path
         d="M -124.88763,81.367007 V 77.51852 h 0.46603 v 3.435076 h 1.78894 v 0.413411 z"
         id="path457" />
    </g>
    <path
       style="fill:none;stroke:#af1c1c;stroke-width:0.264583px;stroke-linecap:round;stroke-linejoin:round;stroke-opacity:1"
       d="m 55.756735,40.528159 v 9.678365 l 32.759692,-3e-6 -0.005,94.056509 H 55.756735 v -9.67836"
       id="path1183"
       sodipodi:nodetypes="cccccc" />
    <g
       id="g1301"
       transform="translate(0,47.102811)">
      <path
         style="fill:none;stroke:#af1c1c;stroke-width:0.264583px;stroke-linecap:butt;stroke-linejoin:miter;stroke-opacity:1"
         d="m 55.756735,40.528159 v 9.678365 h 32.754742"
         id="path1293"
         sodipodi:nodetypes="ccc" />
      <path
         style="fill:none;stroke:#391010;stroke-width:0.264583px;stroke-linecap:butt;stroke-linejoin:miter;stroke-opacity:1"
         d="m 63.738216,40.528159 v 8.309584 h 26.142041"
         id="path1295"
         sodipodi:nodetypes="ccc" />
      <path
         style="fill:none;stroke:#f8a150;stroke-width:0.264583px;stroke-linecap:butt;stroke-linejoin:miter;stroke-opacity:1"
         d="m 71.799686,40.528159 v 6.940803 h 19.449351"
         id="path1297"
         sodipodi:nodetypes="ccc" />
      <path
         style="fill:none;stroke:#e1c457;stroke-width:0.264583px;stroke-linecap:butt;stroke-linejoin:miter;stroke-opacity:1"
         d="m 79.627646,40.528159 v 5.572022 h 13.118281"
         id="path1299"
         sodipodi:nodetypes="ccc" />
    </g>
    <path
       style="fill:none;stroke:#391010;stroke-width:0.264583px;stroke-linecap:round;stroke-linejoin:round;stroke-opacity:1"
       d="m 63.738216,134.58467 v 8.30958 H 89.880257 V 48.837741 l -26.142041,2e-6 v -8.309584"
       id="path1305"
       sodipodi:nodetypes="cccccc" />
    <path
       style="fill:none;stroke:#f8a150;stroke-width:0.264583px;stroke-linecap:round;stroke-linejoin:round;stroke-opacity:1"
       d="m 71.799686,134.58467 v 6.9408 l 19.449351,-0.001 1.9e-4,-94.055469 -19.449541,1e-6 v -6.940803"
       id="path1307"
       sodipodi:nodetypes="cccccc" />
    <path
       style="fill:none;stroke:#e1c457;stroke-width:0.264583px;stroke-linecap:round;stroke-linejoin:round;stroke-opacity:1"
       d="m 79.627646,134.58467 v 5.57202 H 92.617817 V 46.10018 l -12.990171,10e-7 v -5.572022"
       id="path1309"
       sodipodi:nodetypes="cccccc" />
    <path
       style="fill:none;stroke:#af1c1c;stroke-width:0.264583px;stroke-linecap:round;stroke-linejoin:miter;stroke-opacity:1"
       d="M 88.511477,56.423871 H 103.41561"
       id="path1339"
       sodipodi:nodetypes="cc" />
    <path
       style="fill:none;stroke:#391010;stroke-width:0.264583px;stroke-linecap:round;stroke-linejoin:miter;stroke-opacity:1"
       d="M 89.880257,64.335074 H 103.41561"
       id="path1341"
       sodipodi:nodetypes="cc" />
    <path
       style="fill:none;stroke:#f8a150;stroke-width:0.264583px;stroke-linecap:round;stroke-linejoin:miter;stroke-opacity:1"
       d="M 91.249037,72.272577 H 103.41561"
       id="path1343"
       sodipodi:nodetypes="cc" />
    <path
       style="fill:none;stroke:#e1c457;stroke-width:0.264583px;stroke-linecap:round;stroke-linejoin:miter;stroke-opacity:1"
       d="M 92.617817,80.210082 H 103.41561"
       id="path1345"
       sodipodi:nodetypes="cc" />
  </g>
</svg>
